<?xml version="1.0" encoding="UTF-8"?>
<svg width="700pt" height="700pt" version="1.1" viewBox="0 0 700 600" xmlns="http://www.w3.org/2000/svg" xmlns:xlink="http://www.w3.org/1999/xlink">
 <g>
  <path d="m630 324.86v155.86c0 43.738-35.547 79.285-79.227 79.285h-401.55c-43.68 0-79.227-35.547-79.227-79.227v-155.91c0-7.25 5.8945-13.145 13.145-13.145s13.145 5.8945 13.145 13.145v155.86c0 29.238 23.754 52.992 52.992 52.992h401.49c29.238 0 52.992-23.754 52.992-52.992l0.003906-155.86c0-7.25 5.8945-13.145 13.145-13.145s13.086 5.8945 13.086 13.145zm-289.55 98.441c2.4766 2.6523 5.9531 4.125 9.5508 4.125s7.0742-1.4727 9.5508-4.125l137.23-146.31c4.9531-5.3047 4.7148-13.617-0.58984-18.57s-13.617-4.7148-18.57 0.58984l-114.47 122.08 0.53125-367.95c0.058594-7.25-5.8359-13.145-13.086-13.145s-13.086 5.8359-13.145 13.086l-0.53125 368.01-114.59-122.02c-4.9531-5.3047-13.262-5.543-18.57-0.58984-5.3047 4.9531-5.543 13.262-0.58984 18.57z"/>
 </g>
</svg>
